PathFileType	4	(X/Y/Z)	/Users/mathieubourgeois/Desktop/Analyse/Traitement/Sujet_08/Transformed_Static_Sujet_08_Tpose.trc
DataRate	CameraRate	NumFrames	NumMarkers	Units	OrigDataRate	OrigDataStartFrame	OrigNumFrames
120.000000	120.000000	4	35	mm	120.000000	202	324
Frame#	Time	RFHD			RANE			STRN			LANI			LKNE			T10			RHUM			RWRB			C7			LFWT			LTOE			LWRA			LBWT			RBWT			RFWT			LKNI			RKNI			RKNE			LANE			RANI			LHEE			RTOE			LHUM			LRAD			RRAD			RWRA			LWRB			LFHD			LBHD			RBHD			RSHO			LSHO			CLAV			LCAR			RCAR			
		X1	Y1	Z1	X2	Y2	Z2	X3	Y3	Z3	X4	Y4	Z4	X5	Y5	Z5	X6	Y6	Z6	X7	Y7	Z7	X8	Y8	Z8	X9	Y9	Z9	X10	Y10	Z10	X11	Y11	Z11	X12	Y12	Z12	X13	Y13	Z13	X14	Y14	Z14	X15	Y15	Z15	X16	Y16	Z16	X17	Y17	Z17	X18	Y18	Z18	X19	Y19	Z19	X20	Y20	Z20	X21	Y21	Z21	X22	Y22	Z22	X23	Y23	Z23	X24	Y24	Z24	X25	Y25	Z25	X26	Y26	Z26	X27	Y27	Z27	X28	Y28	Z28	X29	Y29	Z29	X30	Y30	Z30	X31	Y31	Z31	X32	Y32	Z32	X33	Y33	Z33	X34	Y34	Z34	X35	Y35	Z35	

203	1.683333333333333	-784.9566650390625	1612.65869140625	413.0172119140623	-844.2477416992188	82.24911499023439	204.8702392578124	-699.0567626953125	1253.78955078125	401.0651550292967	-591.6320190429688	91.70848846435548	232.757598876953	-528.6632690429688	499.0337524414062	299.1655273437499	-686.7772216796875	1212.940551757812	172.570831298828	-1099.08203125	1384.816040039062	253.4282073974607	-1346.6640625	1474.589721679688	245.7066345214841	-696.1151123046875	1470.63671875	215.168487548828	-559.7252197265625	969.5637817382812	365.0196838378905	-527.6827392578125	34.57609939575197	399.6996459960937	-29.14097595214846	1409.372680664062	209.6522064208984	-624.3699951171875	1005.780578613281	214.8773040771483	-757.42626953125	1005.397399902344	216.2728729248045	-797.3931274414062	970.9452514648438	375.8742065429686	-631.1520385742188	438.6683349609375	258.8961486816406	-749.1741333007812	433.6258544921875	260.7011108398436	-853.197021484375	506.2360229492188	267.6649169921873	-514.4469604492188	80.87290191650392	191.2945098876953	-765.120849609375	101.4878311157227	229.4122619628905	-561.9060668945312	52.8730583190918	155.1149902343749	-813.6616821289062	37.90035629272463	394.1679077148436	-289.9169616699219	1383.217895507812	261.6620178222655	-281.7028198242188	1427.317138671875	197.3040924072264	-1106.030029296875	1421.86669921875	199.4437561035154	-1354.362060546875	1420.691284179688	204.6234588623044	-38.02129745483401	1480.2099609375	234.638214111328	-657.9800415039062	1631.727172851562	424.2302246093748	-634.4302978515625	1643.785522460938	271.5291442871092	-771.0811767578125	1638.784790039062	248.0705871582029	-802.35400390625	1473.246215820312	238.4359436035155	-582.8416748046875	1474.227661132812	233.9471130371092	-699.5283813476562	1416.530151367188	341.6986389160154	61.87884140014646	1459.9453125	202.214370727539	-1455.089965820312	1450.772827148438	208.1640930175779	
204	1.691666666666667	-784.3358764648438	1612.915893554688	413.1401062011716	-844.280517578125	82.25430297851564	204.8520202636718	-699.0958251953125	1253.779663085938	401.017120361328	-591.6458129882812	91.71620178222658	232.7464141845702	-528.694091796875	499.0162963867188	299.1579284667968	-686.6978149414062	1212.898681640625	172.5759124755858	-1099.059204101562	1384.821899414062	253.4059753417966	-1346.617431640625	1474.648315429688	245.7548980712888	-696.14697265625	1470.624145507812	215.0777435302733	-559.79931640625	969.5320434570312	365.1170654296874	-527.681640625	34.57200241088869	399.6869201660156	-29.1646366119385	1409.035888671875	209.4760437011718	-624.324951171875	1005.771850585938	214.9361877441405	-757.4024658203125	1005.420715332031	216.2541503906249	-797.4759521484375	970.943603515625	375.8037109374998	-631.1614990234375	438.6524353027344	258.8785705566406	-749.2234497070312	433.6199645996094	260.6704711914061	-853.2470703125	506.2456359863281	267.5858154296873	-514.4469604492188	80.87159729003908	191.2902069091796	-765.1570434570312	101.506233215332	229.4034423828124	-561.9058227539062	52.86618041992188	155.1214294433593	-813.6680908203125	37.90713119506838	394.1408081054686	-289.9719848632813	1383.066284179688	261.592315673828	-281.7300109863281	1427.085083007812	197.2086791992186	-1106.016723632812	1421.859375	199.4054107666013	-1354.346923828125	1420.741088867188	204.672180175781	-38.00874710083011	1479.88623046875	234.4666442871093	-657.2697143554688	1631.826171875	423.8182067871092	-634.2686157226562	1643.697631835938	270.9598083496092	-771.0624389648438	1638.836303710938	248.0816497802732	-802.3192749023438	1473.249633789062	238.3339233398436	-582.8509521484375	1474.202392578125	233.8619842529295	-699.497802734375	1416.53271484375	341.6366882324216	61.8732109069824	1459.580932617188	201.9766693115234	-1455.062255859375	1450.855590820312	208.2671356201169	
205	1.7	-783.7567749023438	1613.144775390625	413.2608947753904	-844.3096313476562	82.24046325683595	204.840118408203	-699.1193237304688	1253.788696289062	400.969268798828	-591.6380004882812	91.68911743164064	232.7235260009765	-528.7205810546875	499.0113525390625	299.1602172851561	-686.6173706054688	1212.865966796875	172.5834808349608	-1099.017333984375	1384.831176757812	253.3980560302732	-1346.573364257812	1474.702392578125	245.794250488281	-696.192626953125	1470.600219726562	214.9894561767576	-559.877685546875	969.4998779296875	365.2202758789061	-527.677734375	34.57530212402346	399.6952514648437	-29.17907524108889	1408.724487304688	209.3358917236327	-624.28076171875	1005.78271484375	214.9828948974608	-757.3543090820312	1005.443603515625	216.1841583251952	-797.5665893554688	970.9609375	375.7217407226561	-631.1677856445312	438.64794921875	258.8290710449218	-749.2708740234375	433.6117858886719	260.7145385742186	-853.2814331054688	506.2444458007812	267.5664062499998	-514.439453125	80.87289428710939	191.2857666015624	-765.1890258789062	101.517219543457	229.4013061523437	-561.8881225585938	52.86679840087891	155.1055450439453	-813.6751098632812	37.9044876098633	394.1307983398436	-290.0031433105469	1382.908813476562	261.4906005859374	-281.7559509277344	1426.906494140625	197.0918884277343	-1105.998413085938	1421.859252929688	199.3963623046873	-1354.313232421875	1420.790405273438	204.7331085205076	-38.01257324218753	1479.609130859375	234.3436431884765	-656.5822143554688	1631.939086914062	423.4179382324217	-634.1636962890625	1643.619262695312	270.4527282714842	-771.01416015625	1638.91064453125	248.0499572753904	-802.2782592773438	1473.251098632812	238.2514648437498	-582.8402709960938	1474.166259765625	233.7633972167967	-699.4710693359375	1416.54296875	341.5436401367185	62.18820190429685	1459.533081054688	201.5015716552734	-1455.0458984375	1450.951049804688	208.398498535156	
206	1.708333333333333	-783.145263671875	1613.381225585938	413.280822753906	-844.3280639648438	82.25381469726564	204.8395843505858	-699.1448364257812	1253.79296875	400.930206298828	-591.6318359375	91.68875122070314	232.7300872802734	-528.7601928710938	498.9853210449219	299.1956787109374	-686.5112915039062	1212.836181640625	172.5558776855467	-1098.981811523438	1384.845581054688	253.3977355957029	-1346.5205078125	1474.753540039062	245.8685760498044	-696.2188110351562	1470.593139648438	214.9001617431639	-559.9573364257812	969.4686889648438	365.3289184570311	-527.687744140625	34.5694046020508	399.6934204101562	-29.21094894409182	1408.45458984375	209.2033233642577	-624.216552734375	1005.778991699219	215.0288848876952	-757.3068237304688	1005.480285644531	216.0961608886717	-797.6644897460938	970.9532470703125	375.6082763671873	-631.18896484375	438.6280822753906	258.8002014160156	-749.2860717773438	433.6065368652344	260.8240356445311	-853.31103515625	506.2496643066406	267.5953369140623	-514.432373046875	80.87318420410158	191.3079528808593	-765.2106323242188	101.5117340087891	229.4113616943359	-561.88037109375	52.87028121948243	155.1025695800781	-813.6737670898438	37.90916824340822	394.1198425292968	-290.0225219726563	1382.757568359375	261.3884887695311	-281.7709350585938	1426.734741210938	196.9839782714843	-1105.972045898438	1421.833374023438	199.3650817871091	-1354.2998046875	1420.828979492188	204.7863006591794	-37.98683929443362	1479.341552734375	234.1669006347655	-655.9239501953125	1632.040405273438	422.9950866699217	-634.0338134765625	1643.512329101562	269.9545288085936	-770.959716796875	1638.998657226562	248.0066680908201	-802.2504272460938	1473.258178710938	238.1591796874998	-582.8272705078125	1474.129760742188	233.6777954101561	-699.444580078125	1416.54052734375	341.4511413574216	62.23571777343748	1459.24755859375	201.2277221679687	-1455.027465820312	1451.021484375	208.5539550781247	
